:FULLY-SPECIFIED
:DEGREES
86
root -10.87969970703125 17.17180061340332 13.748200416564941 90.00000933466734 -0.0 -0.0
lhipjoint -5.528973971617621e-07 -1.7075472925031877e-06 5.635377011264426e-07
lfemur -23.06823650657146 23.494247357936203 -13.24775551320763
ltibia 19.640275552716073 -8.4833766944591 6.388620001492366
lfoot -8.313601243581031 -4.166803860716823 2.864000131493662
ltoes -1.2340527525851048 0.483517202194842 0.44464699583469613
rhipjoint -1.4590168159163821e-06 -1.2806604693773908e-06 -1.1362305144035093e-07
rfemur 18.596540685268085 -25.5032228513431 0.285797553111974
rtibia 19.200250860721756 8.267912400675524 -6.275922307073978
rfoot -13.937853921283624 -4.488743973471728 -4.405427618428619
rtoes -1.2835022549589392 -0.5031190446999853 -0.4622762210106015
lowerback 6.060021308070344 -2.376148533940212 1.1410762688997773
upperback -0.13675354063389283 -3.0010372050193896 1.7718733737761332
thorax -3.519311105466311 -1.6082766827759878 0.8527024271298126
lowerneck -16.067261871457124 10.436272919685608 -4.064554648181263
upperneck 21.56521069102784 -6.067311681235687 -4.480302286544415
head 9.706818961612 -3.277442581011935 -2.292780525591506
lclavicle -1.1905593500282093e-07 5.336085289072462e-08 1.7916324053945998e-07
lhumerus -80.04986488387362 -31.932247690644324 -25.060320942160917
lradius 9.399569074552737e-07 -6.237279428069555e-07 19.898005910857336
lwrist -1.338649665440581e-06 -16.967591794638818 1.7427636152693494e-06
lhand -24.529227630415527 -5.33758878446351 -11.521680478807136
lfingers -9.414104972780149e-07 5.958838404591767e-07 7.125023250159637
lthumb -45.93664216859586 -33.15161404241002 28.736750517643028
rclavicle -2.343282567121354e-08 -1.5207843073856516e-06 -8.563986979746117e-08
rhumerus -79.1992194642619 24.647311355881293 11.12554231355109
rradius -1.1842351096551497e-06 2.86214360185934e-06 -36.945206975367235
rwrist -1.1139540366367261e-07 2.2059735169956984 1.0583350408110373e-07
rhand 15.948324372345109 -3.172706752731667 10.960950976253063
rfingers -4.6239122781278693e-07 1.3831930793101032e-07 -7.125021115725521
rthumb -4.52313781792415 15.320867336694594 -12.175150289911643
87
root -11.33590030670166 17.242900848388672 14.229000091552734 90.00000933466734 -0.0 -0.0
lhipjoint -5.528973971617621e-07 -1.7075472925031877e-06 5.635377011264426e-07
lfemur -20.78937462584797 25.678217420520706 -11.616239325224086
ltibia 20.21920067921906 -8.768274983797733 6.534505158201021
lfoot -5.05869295074485 -3.27499865394954 1.7931084319057027
ltoes -3.0123304959251826 1.1994370337063627 1.0691540567744255
rhipjoint -1.4590168159163821e-06 -1.2806604693773908e-06 -1.1362305144035093e-07
rfemur 17.573009517384993 -23.771035651409093 0.7833537022176749
rtibia 23.652897284429965 10.489190664053927 -7.3426522870232835
rfoot -11.721506200712323 -4.247753982099344 -3.8096216793919444
rtoes -4.158960669115532 -1.6728034008558021 -1.4613436256382635
lowerback 5.938303495079309 -0.8906397523792964 1.2398840265890032
upperback 0.10173602787309693 -2.292357053862965 1.7741413167456948
thorax -3.234713984781393 -1.712236537533519 0.8787682432715795
lowerneck -16.168674812706183 10.378431462699355 -4.133340202651992
upperneck 21.95670859651651 -6.63314461576023 -4.7447048857311325
head 9.879666290069283 -3.439008571394471 -2.3503773764281077
lclavicle -1.1905593500282093e-07 5.336085289072462e-08 1.7916324053945998e-07
lhumerus -79.58483145423331 -31.25873298187312 -25.204943367646766
lradius 1.2659516507530572e-06 1.2063551804649174e-06 18.787417151813262
lwrist -1.3715147186307053e-06 -17.325889858119346 1.782145090668606e-06
lhand -24.7223597669341 -5.451751981345689 -11.659270370768812
lfingers -9.414104972780149e-07 5.958838404591767e-07 7.125023250159637
lthumb -46.18213624283904 -33.240802652592045 28.707633421211263
rclavicle -2.343282567121354e-08 -1.5207843073856516e-06 -8.563986979746117e-08
rhumerus -79.11292685428796 24.420960594334364 14.114455292463473
rradius -1.0783381089803852e-06 2.8695114967233564e-06 -35.35379680441636
rwrist -1.753015764340704e-07 3.4987912962088887 1.6443357019863466e-07
rhand 16.132882913908023 -3.3672439872285587 11.478251574743258
rfingers -4.6239122781278693e-07 1.3831930793101032e-07 -7.125021115725521
rthumb -4.524278459515542 14.987646312751767 -11.725390870802768
88
root -11.814399719238281 17.30940055847168 14.70780086517334 90.00000933466734 -0.0 -0.0
lhipjoint -5.528973971617621e-07 -1.7075472925031877e-06 5.635377011264426e-07
lfemur -18.35018600718948 26.862666137702004 -9.114922452101512
ltibia 20.894270963573735 -9.102483823849273 6.701151101778755
lfoot -2.820636114226897 -1.3138758927545744 1.0056153682467357
ltoes 0.8492281019980975 -0.32628480675812044 -0.3111963319121805
rhipjoint -1.4590168159163821e-06 -1.2806604693773908e-06 -1.1362305144035093e-07
rfemur 14.947384055141834 -23.625021574879852 0.6386359208877092
rtibia 30.03780251678749 13.806091034457616 -8.573016097126347
rfoot -6.333857252274496 -3.7539347202020075 -2.202315310364922
rtoes -4.013107528918611 -1.6120867543940913 -1.411923044846696
lowerback 5.622770526652699 0.14574841952312362 0.9808183664650045
upperback 0.09737153032335218 -2.2808080577501197 1.3572914566052314
thorax -3.0827230658415687 -2.3237360101270617 0.6882566582384699
lowerneck -15.322124091501877 10.777738835730286 -3.9656061245621106
upperneck 21.74413774162008 -6.824149575239167 -4.541325757910247
head 9.647217023367178 -3.6043582731337827 -2.2833153775057493
lclavicle -1.1905593500282093e-07 5.336085289072462e-08 1.7916324053945998e-07
lhumerus -78.75051701692709 -30.937403317275287 -27.377061344474004
lradius 1.1348231316791805e-06 3.890958031783343e-07 18.458213986649692
lwrist -1.4760917636682252e-06 -18.447598165132202 1.9065162795995576e-06
lhand -24.35823555209155 -5.338527081700741 -11.612820815544495
lfingers -9.414104972780149e-07 5.958838404591767e-07 7.125023250159637
lthumb -45.74735713612729 -33.11891451175858 28.554391296992858
rclavicle -2.343282567121354e-08 -1.5207843073856516e-06 -8.563986979746117e-08
rhumerus -78.42332363492679 24.914462252435293 16.72197136189599
rradius -6.996995879281413e-07 2.022445004184033e-06 -33.56069456236959
rwrist -2.3867673651706976e-07 4.799710106664537 2.2093214206037285e-07
rhand 16.514569252653967 -3.483758476732514 11.582367563356346
rfingers -4.6239122781278693e-07 1.3831930793101032e-07 -7.125021115725521
rthumb -4.227897341521648 14.717584048064047 -11.541309588708106
89
root -12.275300025939941 17.395999908447266 15.22390079498291 90.00000933466734 -0.0 -0.0
lhipjoint -5.528973971617621e-07 -1.7075472925031877e-06 5.635377011264426e-07
lfemur -15.48740442413243 27.507159372689824 -7.015039275275861
ltibia 21.525134556072793 -9.416699846426539 6.853489933479426
lfoot -3.0692974752542623 -1.0916275135778832 1.0894786720319738
ltoes 3.586367127973146 -1.3413948316422615 -1.341977105269005
rhipjoint -1.4590168159163821e-06 -1.2806604693773908e-06 -1.1362305144035093e-07
rfemur 11.094481174526813 -23.46848046929233 0.5558279880509439
rtibia 36.457196789358996 17.238977408478227 -9.430427672884619
rfoot 3.517092147759703 -3.2317219350381046 1.2942606566753556
rtoes 2.196377741542065 0.8329288694000669 0.8133158211158167
lowerback 5.243772294231977 -0.11467085869636726 1.1184593781237495
upperback 0.11485771506297736 -1.9311779312131603 1.5440218916025044
thorax -2.844230362384472 -1.8072394529682245 0.7753526158526809
lowerneck -14.804559676954991 10.240967929237325 -4.084970510497254
upperneck 21.899705545250875 -6.773648010289739 -4.907335531850544
head 9.615309794659463 -3.4558469086892565 -2.428069924463357
lclavicle -1.1905593500282093e-07 5.336085289072462e-08 1.7916324053945998e-07
lhumerus -78.83279347566906 -31.340633780210744 -26.073919307443518
lradius 1.2516843440073857e-06 1.1394559530726376e-06 19.392616308505996
lwrist -1.4396887123393158e-06 -18.060297410888506 1.8633836834534206e-06
lhand -25.309622846866382 -5.266168484520449 -10.983592199578009
lfingers -9.414104972780149e-07 5.958838404591767e-07 7.125023250159637
lthumb -46.78672068250648 -33.26319201269135 29.69200711458267
rclavicle -2.343282567121354e-08 -1.5207843073856516e-06 -8.563986979746117e-08
rhumerus -77.99029647173715 25.628391190525463 20.43818166665155
rradius -1.3556669052082836e-06 4.587693139192861e-06 -32.18730061463094
rwrist -2.3612198777473102e-07 4.746912744380339 2.1868649234419744e-07
rhand 12.800976617897817 -2.9378985094449686 12.711762394506403
rfingers -4.6239122781278693e-07 1.3831930793101032e-07 -7.125021115725521
rthumb -7.788555210572043 16.420082123223303 -11.704910548576484
